<svg id="Layer_1" viewBox="0 0 512 512" xmlns="http://www.w3.org/2000/svg" xmlns:xlink="http://www.w3.org/1999/xlink" data-name="Layer 1"><linearGradient id="New_Gradient_Swatch" gradientUnits="userSpaceOnUse" x1="57.209" x2="454.791" y1="256" y2="256"><stop offset="0" stop-color="#0053cc"/><stop offset=".274" stop-color="#0077da"/><stop offset=".765" stop-color="#00b3f0"/><stop offset="1" stop-color="#00caf9"/></linearGradient><path d="m331.628 279.9h-51.06v-51.06h51.06v2.419l-22 22-9.764-9.763a7.2 7.2 0 1 0 -10.2 10.172l14.863 14.863a7.213 7.213 0 0 0 10.172 0l16.932-16.9zm-214.615-220.1a5.132 5.132 0 0 0 1.515-3.643v-48.957l-54.12 54.119h48.962a5.182 5.182 0 0 0 3.643-1.519zm214.615 72.044-16.928 16.906a7.16 7.16 0 0 1 -10.172 0l-14.863-14.863a7.2 7.2 0 1 1 10.2-10.171l9.764 9.763 22-21.974v-2.449h-51.06v51.061h51.06zm-90.2 280.685a113.56 113.56 0 0 0 12.007 50.943h-177.135a19.155 19.155 0 0 1 -19.09-19.089v-368.667h56.16a19.6 19.6 0 0 0 19.555-19.556v-56.16h241.341a19.154 19.154 0 0 1 19.089 19.089v286.111a113.918 113.918 0 0 0 -151.927 107.332zm24.743-245.217a7.2 7.2 0 0 0 7.2 7.2h65.457a7.214 7.214 0 0 0 7.2-7.2v-49.862l15.563-15.592a7.192 7.192 0 0 0 -10.171-10.171l-6.441 6.441a7.209 7.209 0 0 0 -6.149-3.469h-65.46a7.2 7.2 0 0 0 -7.2 7.2zm0 119.782a7.2 7.2 0 0 0 7.2 7.2h65.457a7.214 7.214 0 0 0 7.2-7.2v-49.863l15.563-15.592a7.192 7.192 0 1 0 -10.171-10.171l-6.441 6.441a7.21 7.21 0 0 0 -6.149-3.468h-65.46a7.2 7.2 0 0 0 -7.2 7.2zm-179.322-184.041a7.214 7.214 0 0 0 7.2 7.2h75.131a7.2 7.2 0 1 0 0-14.4h-75.133a7.2 7.2 0 0 0 -7.198 7.2zm0 32.116a7.2 7.2 0 0 0 7.2 7.2h43.279a7.2 7.2 0 1 0 0-14.4h-43.281a7.214 7.214 0 0 0 -7.198 7.2zm0 119.782a7.2 7.2 0 0 0 7.2 7.2h43.279a7.2 7.2 0 1 0 0-14.4h-43.281a7.214 7.214 0 0 0 -7.198 7.2zm7.2-24.918h75.131a7.2 7.2 0 1 0 0-14.4h-75.133a7.2 7.2 0 0 0 0 14.4zm-7.2 144.7a7.214 7.214 0 0 0 7.2 7.2h43.279a7.2 7.2 0 1 0 0-14.4h-43.281a7.214 7.214 0 0 0 -7.198 7.199zm7.2-24.947h75.131a7.184 7.184 0 1 0 0-14.368h-75.133a7.184 7.184 0 1 0 0 14.368zm137.268 57.093a7.2 7.2 0 0 0 -7.2-7.2h-130.07a7.2 7.2 0 0 0 0 14.4h130.069a7.214 7.214 0 0 0 7.199-7.201zm0-32.146a7.214 7.214 0 0 0 -7.2-7.2h-64.409a7.2 7.2 0 0 0 0 14.4h64.408a7.214 7.214 0 0 0 7.199-7.201zm0-87.635a7.2 7.2 0 0 0 -7.2-7.2h-130.07a7.2 7.2 0 0 0 0 14.4h130.069a7.214 7.214 0 0 0 7.199-7.198zm0-32.146a7.214 7.214 0 0 0 -7.2-7.2h-64.409a7.2 7.2 0 0 0 0 14.4h64.408a7.2 7.2 0 0 0 7.199-7.201zm0-87.636a7.214 7.214 0 0 0 -7.2-7.2h-130.07a7.2 7.2 0 0 0 0 14.4h130.069a7.214 7.214 0 0 0 7.199-7.201zm0-32.146a7.214 7.214 0 0 0 -7.2-7.2h-64.409a7.2 7.2 0 0 0 0 14.4h64.408a7.2 7.2 0 0 0 7.199-7.201zm190.4 277.363a66.418 66.418 0 1 1 -19.468-46.951 66.115 66.115 0 0 1 19.463 46.95zm-36.459 9-22.761-13.144v-47.3a7.2 7.2 0 1 0 -14.4 0v51.439a7.168 7.168 0 0 0 4.08 6.47l25.88 14.98a7.188 7.188 0 0 0 7.2-12.445zm69.538-9a99.483 99.483 0 1 1 -99.5-99.468 99.492 99.492 0 0 1 99.495 99.467zm-18.682 0a80.8 80.8 0 1 0 -23.665 57.122 80.645 80.645 0 0 0 23.66-57.123z" fill="url(#New_Gradient_Swatch)" fill-rule="evenodd"/></svg>