<svg id="ae678c02-cbe5-48c2-b3f2-c0f25117b897" viewBox="0 0 64 64" xmlns="http://www.w3.org/2000/svg" xmlns:xlink="http://www.w3.org/1999/xlink" data-name="flat gradient flaticon"><linearGradient id="a49a5d4c-479b-44d3-afcf-3c3d61b46c6f" gradientUnits="userSpaceOnUse" x1="11.136" x2="52.864" y1="32" y2="32"><stop offset="0" stop-color="#00c0ff"/><stop offset="1" stop-color="#5558ff"/></linearGradient><path d="m22.37705 32.83787a27.032 27.032 0 0 0 9.46581-3.82708c1.34147 1.16866 4.318 3.51362 6.54471 3.827v2.126c-.45031 10.61929-15.56485 10.62105-16.01054.00005zm15.4282-1.892c.093.0292.1858.06448.2773.09247a8.61971 8.61971 0 0 0 -1.52535-5.86069 32.35994 32.35994 0 0 1 -3.4572 2.73626 18.27532 18.27532 0 0 0 4.70525 3.032zm-12.86767-6.60018a8.32072 8.32072 0 0 0 -2.25542 6.69271c4.44511-1.16671 7.86588-2.61064 12.89533-6.93287a7.74278 7.74278 0 0 0 -10.63991.24016zm3.27242 19.95778v.61008l2.22777 2.93038 2.11686-2.92113v-.61933a9.57727 9.57727 0 0 1 -4.34463 0zm17.60051 12.94153-2.12624-5.64791c-1.407-4.24335-6.325-3.52686-9.18838-6.05494l-3.07827 4.243v3.411a.96628.96628 0 0 1 -1.932 0v-3.40175c-.60441-.79874-2.64961-3.50186-3.2262-4.243-1.27794 1.25931-3.78633 1.86145-5.41695 2.43116a6.06709 6.06709 0 0 0 -3.76231 3.62368l-2.12602 5.63876a2.0363 2.0363 0 0 0 1.895 2.74546h2.19082c.15563-.806.81975-4.11021 1.15325-5.775a.96754.96754 0 0 1 1.89646.37432c-.34659 1.74336-.92659 4.67417-1.07148 5.40068h18.72827c-.14645-.75591-.726-3.656-1.07148-5.40181a.96674.96674 0 0 1 1.89653-.37145c.33088 1.66712.98588 4.996 1.15316 5.77327 1.21993-.07666 3.07662.37529 3.864-.87814a2.03323 2.03323 0 0 0 .22184-1.86733zm7.05316-50.59225v11.213a2.663 2.663 0 0 1 -2.66227 2.66225h-1.99667l-5.59265 5.65728a.93153.93153 0 0 1 -1.553-.39751l-1.44208-5.25977h-25.8184a2.663 2.663 0 0 1 -2.66227-2.66227v-11.21298a2.66292 2.66292 0 0 1 2.66227-2.66227h36.4028a2.66292 2.66292 0 0 1 2.66227 2.66227zm-29.42361 3.81777-2.21852-.32352-.99836-2.01518a.9617.9617 0 0 0 -1.65471 0l-.99831 2.01518-2.21855.32358a.92224.92224 0 0 0 -.50844 1.57142l1.59919 1.57149-.379 2.20932a.92638.92638 0 0 0 .36973.9059.94291.94291 0 0 0 .97066.074l1.98743-1.04457 1.98747 1.04457a.95049.95049 0 0 0 .97986-.074.92624.92624 0 0 0 .36973-.9059l-.379-2.20932 1.59923-1.57149a.92225.92225 0 0 0 -.50841-1.57148zm12.60881 0-2.22787-.32352-.989-2.01523a.96984.96984 0 0 0 -1.664 0l-.989 2.01523-2.22779.32358a.93026.93026 0 0 0 -.50845 1.57142l1.60845 1.57149-.379 2.20932a.90873.90873 0 0 0 .36972.9059.9397.9397 0 0 0 .97061.074l1.98746-1.04466 1.98748 1.04457a.93338.93338 0 0 0 .97061-.074.90873.90873 0 0 0 .36972-.9059l-.379-2.20932 1.60847-1.5714a.93028.93028 0 0 0 -.50841-1.57148zm12.59955 0-2.21858-.32352-.99831-2.01518a.9617.9617 0 0 0 -1.65471 0l-.99836 2.01518-2.21846.32353a.92224.92224 0 0 0 -.50844 1.57142l1.59919 1.57149-.379 2.20932a.92624.92624 0 0 0 .36973.9059.95793.95793 0 0 0 .97986.074l1.98747-1.04457 1.98743 1.04457a.93578.93578 0 0 0 .97066-.074.92638.92638 0 0 0 .36973-.9059l-.379-2.20932 1.5992-1.57144a.92225.92225 0 0 0 -.50841-1.57148zm-28.86894.9244-.38828-.76727-.379.76727c-.21105.57083-1.05434.54314-1.54377.62857.35338.3624 1.03456.82579.87814 1.42356l-.13859.84124.758-.39754c.51132-.32177 1.17016.1784 1.61771.39757l-.14795-.84127c-.14245-.59629.53455-1.06231.88748-1.42355-.49271-.08467-1.33042-.05808-1.54374-.62858zm12.5995 0-.37898-.76727c-.23171.44208-.47547 1.23587-1.07229 1.27564l-.85047.12021c.3468.36634 1.03437.83077.87816 1.42355l-.14785.84124c.454-.22585 1.10861-.71582 1.62688-.39751l.758.39751-.14788-.84124c-.1582-.59158.53449-1.05868.87823-1.42356-.49873-.08414-1.31266-.05819-1.54378-.62857zm12.6088 0-.379-.76727-.38828.76727c-.211.5708-1.05437.54316-1.54377.62857.35612.36277 1.02785.826.88744 1.42356l-.1479.84124.758-.39754c.513-.32 1.16877.17691 1.61771.39757-.06682-.49554-.33853-1.27889.12019-1.664l.6193-.60085c-.49268-.08447-1.3303-.05814-1.54369-.62855z" fill="url(#a49a5d4c-479b-44d3-afcf-3c3d61b46c6f)"/></svg>