<svg id="Layer_2_00000113328585865425783350000011500646335172805251_" enable-background="new 0 0 512 512" height="512" viewBox="0 0 512 512" width="512" xmlns="http://www.w3.org/2000/svg" xmlns:xlink="http://www.w3.org/1999/xlink"><linearGradient id="ID_00000012445151089406890850000013612780874978507431_" gradientTransform="matrix(1 0 0 -1 0 514)" gradientUnits="userSpaceOnUse" x1="42.646" x2="469.354" y1="471.354" y2="44.646"><stop offset="0" stop-color="#64b5f6"/><stop offset="1" stop-color="#1976d2"/></linearGradient><g id="_04.Icon"><path id="ID" d="m462 56h-412c-27.6 0-50 22.4-50 50v300c0 27.6 22.4 50 50 50h412c27.6 0 50-22.4 50-50v-300c0-27.6-22.4-50-50-50zm-303.2 86.5c30.6 0 55.4 24.8 55.4 55.4s-24.8 55.4-55.4 55.4-55.4-24.8-55.4-55.4 24.8-55.4 55.4-55.4zm72.4 227h-144.7c-20.3 0-34.8-19.8-28.6-39.1l16.6-51.7c4.6-14.2 20.5-21.4 34.1-15.1 12.2 5.6 28.9 10.5 50.2 10.5s38.1-4.9 50.2-10.5c13.6-6.2 29.6.9 34.1 15.1l16.6 51.7c6.3 19.3-8.2 39.1-28.5 39.1zm209.8-66.5h-112c-7.7 0-14-6.3-14-14s6.3-14 14-14h112c7.7 0 14 6.3 14 14s-6.2 14-14 14zm0-50h-112c-7.7 0-14-6.3-14-14s6.3-14 14-14h112c7.7 0 14 6.3 14 14s-6.2 14-14 14zm0-50h-112c-7.7 0-14-6.3-14-14s6.3-14 14-14h112c7.7 0 14 6.3 14 14s-6.2 14-14 14z" fill="url(#ID_00000012445151089406890850000013612780874978507431_)"/></g></svg>