<svg id="Layer_1" enable-background="new 0 0 100 100" viewBox="0 0 100 100" xmlns="http://www.w3.org/2000/svg" xmlns:xlink="http://www.w3.org/1999/xlink"><linearGradient id="lg1"><stop offset="0" stop-color="#97e0ff"/><stop offset="1" stop-color="#1075ff"/></linearGradient><linearGradient id="SVGID_1_" gradientUnits="userSpaceOnUse" x1="-28.212" x2="63.805" xlink:href="#lg1" y1="20.846" y2="121.686"/><linearGradient id="SVGID_00000031181289888556946350000007712691371230304927_" gradientUnits="userSpaceOnUse" x1="-12.646" x2="79.371" xlink:href="#lg1" y1="6.642" y2="107.482"/><linearGradient id="SVGID_00000160896724410447839740000009451843846369595057_" gradientUnits="userSpaceOnUse" x1="-2.963" x2="89.053" xlink:href="#lg1" y1="-2.193" y2="98.647"/><linearGradient id="SVGID_00000022526701738199976230000007332424479222211001_" gradientUnits="userSpaceOnUse" x1="21.566" x2="113.583" xlink:href="#lg1" y1="-24.577" y2="76.264"/><g clip-rule="evenodd" fill-rule="evenodd"><path d="m9.2199249 69.4000015h33.2999992l-6.2000007 28.0999985h-14.6999969c-4 0-7.9000006-1.6999969-10.6000013-4.6999969s-3.9000002-7.0999985-3.4000002-11.0999985c.4999995-3.9000015.9999995-8.3000031 1.4999995-12.5999985z" fill="url(#SVGID_1_)"/><path d="m59.319931 62.2999992h-49.2000065c.4000006-3 .8000002-6.0999985 1.1000004-8.8999977.3999996-3.4000015 2.0999995-6.5999984 4.6999998-8.7999992 2.6000013-2.2999992 5.9000006-3.5 9.4000006-3.5h21.4999981c3.7000046 7.2999992 7.8000031 14.3999977 12.5000076 21.1999969z" fill="url(#SVGID_00000031181289888556946350000007712691371230304927_)"/><path d="m88.819931 92.6999969c-2.6999969 3-6.5 4.6999969-10.5 4.8000031h-34.8000068l6.3000031-28.0999985h19.8999977c3.5999985.0999985 7-1.6999969 8.9000015-4.8000031 3.1999969-4.7000007 6.6999969-10.0999984 9.800003-15.4000015 1 7.9000015 2.6999969 21.6999969 4 32.6999969.4000015 3.9000093-.9000015 7.9000093-3.5999985 10.8000031z" fill="url(#SVGID_00000160896724410447839740000009451843846369595057_)"/><path d="m69.6199265 2.5c-5.6999969.0999999-11.0999985 2.4000001-15 6.5-4 4.1000004-6.0999985 9.5-6.0999985 15.2000008.2999992 3.5 1.2000008 7 2.7999992 10.1000023.9000015 2.2000008 10.3999977 19.2000008 15.2999992 26.2999992.6999969 1 1.8000031 1.5999985 3 1.5999985s2.3000031-.5999985 3-1.5999985c4.5-6.5999985 13.6999969-22.7999992 14.8000031-24.8999977 1.9000015-3.5999985 3.0999985-7.6000004 3.5-11.7000008 0-5.7000008-2.1999969-11.1000004-6.1999969-15.1999998-4.0000077-4.0000038-9.4000016-6.300004-15.1000061-6.300004zm7.3711471 28.4711514c-1.9165039 1.9164982-4.5701065 3.0958843-7.3711472 3.0958843s-5.4546509-1.0319633-7.371151-3.0958843c-1.9165039-1.9164982-3.0958824-4.5701141-3.0958824-7.371151s1.0319557-5.4546528 3.0958824-7.371151c1.9165001-1.9164982 4.5701103-3.0958834 7.371151-3.0958834s5.4546432 1.0319614 7.3711472 3.0958834c1.9165039 1.9164982 3.0958862 4.5701141 3.0958862 7.371151s-1.0319595 5.454649-3.0958862 7.371151z" fill="url(#SVGID_00000022526701738199976230000007332424479222211001_)"/></g></svg>