<svg id="Flat_Gradient" viewBox="0 0 64 64" xmlns="http://www.w3.org/2000/svg" xmlns:xlink="http://www.w3.org/1999/xlink" data-name="Flat Gradient"><linearGradient id="linear-gradient" gradientUnits="userSpaceOnUse" x1="4" x2="60" y1="32" y2="32"><stop offset="0" stop-color="#00c0ff"/><stop offset="1" stop-color="#5558ff"/></linearGradient><path d="m50.66636 36.97111a9.33732 9.33732 0 0 0 -7.78962 4.19377l-7.8934-4.56412a16.16151 16.16151 0 0 0 0-9.25392l7.89343-4.56412c5.02358 7.62251 17.08595 4.11938 17.12323-5.14008-.50078-12.374-18.16419-12.3805-18.66735.00024a9.31914 9.31914 0 0 0 .62276 3.35891l-7.70257 4.45379a15.87536 15.87536 0 0 0 -14.46174-9.35508c-21.04807.86668-21.06157 30.87408.00012 31.74656a15.87534 15.87534 0 0 0 14.46162-9.355l7.70257 4.45373a9.38652 9.38652 0 0 0 8.71105 12.6926c12.37608-.50194 12.37876-18.16473-.0001-18.66728zm-33.66936 5.478v-13.91034a1.41053 1.41053 0 0 1 1.45214-1.362h2.68393a1.41053 1.41053 0 0 1 1.45214 1.362v13.91034a1.41053 1.41053 0 0 1 -1.45214 1.362h-2.68391a1.41053 1.41053 0 0 1 -1.45216-1.362zm2.7941-16.05349a3.12984 3.12984 0 0 1 .00009-6.25917 3.12984 3.12984 0 0 1 -.00009 6.25917zm-.7911 2.78404h1.58233v12.62856h-1.58233zm.79118-4.787a1.12686 1.12686 0 0 1 0-2.2533 1.12686 1.12686 0 0 1 -.00004 2.25332z" fill="url(#linear-gradient)"/></svg>